# xmcd
#
# Track frame offsets: 
#        150
#        29190
#        51767
#        71737
#        95437
#        113992
#        129575
#        149230
#        165632
#        185115
#        208062
#        230862
#
# Disc length: 3438 seconds
#
# Revision: 0
# Processed by: cddbd v1.5.2PL0 Copyright (c) Steve Scherf et al.
# Submitted via: ExactAudioCopy v0.90b4
#
DISCID=c70d6c0c
DTITLE=Doc West and The Yard Dogs -  Feed The Fire
DYEAR=1998
DGENRE=Country
TTITLE0=Feed The Fire
TTITLE1=Broken Bones
TTITLE2=Still Doing Time
TTITLE3=Walls Of Freedom
TTITLE4=Can't Let You Go
TTITLE5=Black And Blue
TTITLE6=It Ain't Easy
TTITLE7=Prairie Wind
TTITLE8=Paying The Price
TTITLE9=Nico's Valley
TTITLE10=Drunk, Disorderly And Dangerous
TTITLE11=All She Needs
EXTD=
EXTT0=
EXTT1=
EXTT2=
EXTT3=
EXTT4=
EXTT5=
EXTT6=
EXTT7=
EXTT8=
EXTT9=
EXTT10=
EXTT11=
PLAYORDER=
